# xmcd
#
# Track frame offsets: 
#        150
#        17300
#        38705
#        53674
#        73950
#        92287
#        112580
#        133176
#        156080
#        173482
#        200828
#        225154
#        246008
#        269442
#        287011
#        305879
#
# Disc length: 4430 seconds
#
# Revision: 0
# Processed by: cddbd v1.5.2PL0 Copyright (c) Steve Scherf et al.
# Submitted via: ExactAudioCopy v0.95b4
#
DISCID=cd114c10
DTITLE=Various Artist - RAPture - Hiphop Collection
DYEAR=1999
DGENRE=Hip-Hop
TTITLE0=Bone Thugs 'n' Harmony - The Crossroads
TTITLE1=Nas feat. Lauryn Hill - If I Ruled The World
TTITLE2=Will Smith - Miami
TTITLE3=Pras - Blue Angels
TTITLE4=Coolio - Gangsta's Paradise
TTITLE5=Aaliyah - Are You That Somebody
TTITLE6=Naughty By Nature - OPP
TTITLE7=TQ - Westside
TTITLE8=Fugees - Ready Or Not
TTITLE9=Puff Daddy w/ Jimmy Page - Come With Me
TTITLE10=Lauryn Hill - Doo Woop (That Thing)
TTITLE11=Public Enemy - Body Bumpin
TTITLE12=Puff Daddy - Can't Hold Me Down
TTITLE13=Gucci Crew II - Sally (That Girl)
TTITLE14=Arrested Development - Mr. Wendall
TTITLE15=Bone Thugs 'n' Harmony - Days Of Our Lives
EXTD=
EXTT0=
EXTT1=
EXTT2=
EXTT3=
EXTT4=
EXTT5=
EXTT6=
EXTT7=
EXTT8=
EXTT9=
EXTT10=
EXTT11=
EXTT12=
EXTT13=
EXTT14=
EXTT15=
PLAYORDER=
